PathFileType	4	(X/Y/Z)	C:\Users\italobelli\Desktop\GitHub\PTbot_officialCBL\Personal_Results\FLX01_noisy1.trc
DataRate	CameraRate	NumFrames	NumMarkers	Units	OrigDataRate	OrigDataStartFrame	OrigNumFrames
106.533333	106.533333	25	9	m	106.533333	701	800
Frame#	Time		gu		centelbow		EpL		centpxt8		centijc7		ij		ts		aa		ai
			X1	Y1	Z1	X2	Y2	Z2	X3	Y3	Z3	X4	Y4	Z4	X5	Y5	Z5	X6	Y6	Z6	X7	Y7	Z7	X8	Y8	Z8	X9	Y9	Z9

701	6.5707	-0.064497	-0.018235	0.16733	-0.096643	-0.26316	0.1759	-0.075539	-0.26147	0.2002	-0.046816	-0.15316	-0.008669	-0.046816	0.031938	-0.008669	0	0	0	-0.13465	0.024794	0.055023	-0.10058	0.018386	0.16922	-0.14546	-0.088173	0.057425
702	6.5801	-0.064534	-0.018185	0.16736	-0.096878	-0.26309	0.17595	-0.075789	-0.26139	0.20026	-0.046816	-0.15316	-0.008669	-0.046816	0.031938	-0.008669	0	0	0	-0.13466	0.024807	0.055026	-0.10063	0.018435	0.16925	-0.14544	-0.08816	0.057459
703	6.5895	-0.064575	-0.018134	0.16739	-0.097116	-0.26301	0.176	-0.076043	-0.26131	0.20032	-0.046816	-0.15316	-0.008669	-0.046816	0.031938	-0.008669	0	0	0	-0.13467	0.024821	0.055029	-0.10069	0.018486	0.16927	-0.14543	-0.088147	0.057495
704	6.5989	-0.064618	-0.01808	0.16743	-0.097358	-0.26294	0.17605	-0.0763	-0.26123	0.20039	-0.046816	-0.15316	-0.008669	-0.046816	0.031938	-0.008669	0	0	0	-0.13468	0.024835	0.055034	-0.10075	0.018539	0.1693	-0.14542	-0.088134	0.057533
705	6.6083	-0.064664	-0.018025	0.16746	-0.097602	-0.26287	0.1761	-0.07656	-0.26115	0.20045	-0.046816	-0.15316	-0.008669	-0.046816	0.031938	-0.008669	0	0	0	-0.13468	0.024849	0.055039	-0.10081	0.018593	0.16932	-0.14541	-0.088121	0.057572
706	6.6176	-0.064713	-0.017968	0.16749	-0.09785	-0.26279	0.17615	-0.076824	-0.26106	0.20052	-0.046816	-0.15316	-0.008669	-0.046816	0.031938	-0.008669	0	0	0	-0.13469	0.024862	0.055045	-0.10088	0.018649	0.16935	-0.14541	-0.088107	0.057612
707	6.627	-0.064764	-0.01791	0.16753	-0.0981	-0.26272	0.17621	-0.07709	-0.26098	0.20059	-0.046816	-0.15316	-0.008669	-0.046816	0.031938	-0.008669	0	0	0	-0.1347	0.024876	0.055052	-0.10095	0.018707	0.16938	-0.1454	-0.088094	0.057653
708	6.6364	-0.064817	-0.017851	0.16756	-0.098352	-0.26264	0.17627	-0.077358	-0.26089	0.20066	-0.046816	-0.15316	-0.008669	-0.046816	0.031938	-0.008669	0	0	0	-0.13471	0.02489	0.055059	-0.10102	0.018765	0.16941	-0.14539	-0.088081	0.057696
709	6.6458	-0.064873	-0.01779	0.16759	-0.098606	-0.26256	0.17633	-0.077628	-0.26081	0.20073	-0.046816	-0.15316	-0.008669	-0.046816	0.031938	-0.008669	0	0	0	-0.13472	0.024904	0.055067	-0.1011	0.018825	0.16944	-0.14539	-0.088068	0.057739
710	6.6552	-0.06493	-0.017728	0.16763	-0.098861	-0.26248	0.17639	-0.0779	-0.26072	0.2008	-0.046816	-0.15316	-0.008669	-0.046816	0.031938	-0.008669	0	0	0	-0.13473	0.024917	0.055075	-0.10118	0.018886	0.16947	-0.14538	-0.088054	0.057784
711	6.6646	-0.064989	-0.017665	0.16767	-0.099118	-0.2624	0.17645	-0.078174	-0.26063	0.20088	-0.046816	-0.15316	-0.008669	-0.046816	0.031938	-0.008669	0	0	0	-0.13474	0.024931	0.055084	-0.10126	0.018948	0.1695	-0.14538	-0.088041	0.057829
712	6.674	-0.06505	-0.017601	0.1677	-0.099376	-0.26232	0.17651	-0.078448	-0.26054	0.20096	-0.046816	-0.15316	-0.008669	-0.046816	0.031938	-0.008669	0	0	0	-0.13475	0.024944	0.055093	-0.10135	0.01901	0.16953	-0.14537	-0.088028	0.057875
713	6.6834	-0.065112	-0.017536	0.16774	-0.099634	-0.26224	0.17658	-0.078723	-0.26045	0.20103	-0.046816	-0.15316	-0.008669	-0.046816	0.031938	-0.008669	0	0	0	-0.13476	0.024958	0.055103	-0.10143	0.019074	0.16957	-0.14537	-0.088015	0.057922
714	6.6927	-0.065176	-0.017471	0.16777	-0.099893	-0.26216	0.17665	-0.078999	-0.26036	0.20112	-0.046816	-0.15316	-0.008669	-0.046816	0.031938	-0.008669	0	0	0	-0.13477	0.024971	0.055113	-0.10152	0.019138	0.1696	-0.14537	-0.088002	0.05797
715	6.7021	-0.065241	-0.017404	0.16781	-0.10015	-0.26208	0.17671	-0.079275	-0.26027	0.2012	-0.046816	-0.15316	-0.008669	-0.046816	0.031938	-0.008669	0	0	0	-0.13478	0.024985	0.055123	-0.10161	0.019203	0.16963	-0.14536	-0.087989	0.058018
716	6.7115	-0.065307	-0.017338	0.16785	-0.10041	-0.26199	0.17678	-0.079551	-0.26019	0.20128	-0.046816	-0.15316	-0.008669	-0.046816	0.031938	-0.008669	0	0	0	-0.13479	0.024998	0.055134	-0.1017	0.019268	0.16967	-0.14536	-0.087977	0.058066
717	6.7209	-0.065374	-0.017271	0.16788	-0.10067	-0.26191	0.17685	-0.079826	-0.2601	0.20137	-0.046816	-0.15316	-0.008669	-0.046816	0.031938	-0.008669	0	0	0	-0.1348	0.025011	0.055145	-0.1018	0.019333	0.1697	-0.14536	-0.087964	0.058115
718	6.7303	-0.065442	-0.017204	0.16792	-0.10093	-0.26183	0.17693	-0.080101	-0.26001	0.20145	-0.046816	-0.15316	-0.008669	-0.046816	0.031938	-0.008669	0	0	0	-0.13481	0.025023	0.055156	-0.10189	0.019399	0.16973	-0.14536	-0.087952	0.058164
719	6.7397	-0.06551	-0.017136	0.16796	-0.10118	-0.26175	0.177	-0.080374	-0.25992	0.20154	-0.046816	-0.15316	-0.008669	-0.046816	0.031938	-0.008669	0	0	0	-0.13482	0.025036	0.055167	-0.10199	0.019465	0.16977	-0.14536	-0.08794	0.058213
720	6.7491	-0.06558	-0.017069	0.16799	-0.10144	-0.26167	0.17707	-0.080646	-0.25983	0.20163	-0.046816	-0.15316	-0.008669	-0.046816	0.031938	-0.008669	0	0	0	-0.13483	0.025049	0.055179	-0.10208	0.019531	0.1698	-0.14535	-0.087928	0.058262
721	6.7584	-0.065649	-0.017001	0.16803	-0.10169	-0.26158	0.17715	-0.080917	-0.25974	0.20172	-0.046816	-0.15316	-0.008669	-0.046816	0.031938	-0.008669	0	0	0	-0.13484	0.025061	0.05519	-0.10218	0.019597	0.16984	-0.14535	-0.087916	0.058311
722	6.7678	-0.065719	-0.016934	0.16807	-0.10194	-0.2615	0.17723	-0.081185	-0.25965	0.20181	-0.046816	-0.15316	-0.008669	-0.046816	0.031938	-0.008669	0	0	0	-0.13485	0.025073	0.055202	-0.10227	0.019663	0.16987	-0.14535	-0.087904	0.05836
723	6.7772	-0.065789	-0.016866	0.1681	-0.10219	-0.26142	0.17731	-0.081451	-0.25956	0.2019	-0.046816	-0.15316	-0.008669	-0.046816	0.031938	-0.008669	0	0	0	-0.13486	0.025085	0.055213	-0.10237	0.019729	0.1699	-0.14535	-0.087893	0.058409
724	6.7866	-0.065859	-0.0168	0.16814	-0.10244	-0.26134	0.17739	-0.081714	-0.25947	0.202	-0.046816	-0.15316	-0.008669	-0.046816	0.031938	-0.008669	0	0	0	-0.13487	0.025096	0.055224	-0.10247	0.019794	0.16994	-0.14535	-0.087882	0.058458
725	6.796	-0.065929	-0.016733	0.16818	-0.10268	-0.26126	0.17747	-0.081975	-0.25939	0.20209	-0.046816	-0.15316	-0.008669	-0.046816	0.031938	-0.008669	0	0	0	-0.13488	0.025107	0.055236	-0.10256	0.019859	0.16997	-0.14535	-0.087871	0.058506
